<?xml version="1.0" standalone="no"?>
<!DOCTYPE svg PUBLIC "-//W3C//DTD SVG 20010904//EN"
 "http://www.w3.org/TR/2001/REC-SVG-20010904/DTD/svg10.dtd">
<svg version="1.0" xmlns="http://www.w3.org/2000/svg"
 width="512.000000pt" height="512.000000pt" viewBox="0 0 512.000000 512.000000"
 preserveAspectRatio="xMidYMid meet">
<metadata>
Created by potrace 1.14, written by Peter Selinger 2001-2017
</metadata>
<g transform="translate(0.000000,512.000000) scale(0.100000,-0.100000)"
fill="#000000" stroke="none">
<path d="M390 5067 c-115 -107 -182 -211 -229 -352 -88 -267 -36 -579 135
-804 19 -25 483 -495 1030 -1044 l996 -998 339 338 c186 185 339 342 339 348
0 5 -575 585 -1278 1287 l-1277 1278 -55 -53z"/>
<path d="M3477 4546 c-603 -606 -628 -634 -683 -781 -30 -82 -33 -100 -41
-221 -6 -93 6 -193 33 -272 31 -94 64 -139 206 -279 119 -119 154 -147 208
-171 171 -77 376 -84 548 -20 63 24 126 56 188 99 22 15 292 278 599 584 l558
556 -61 62 c-33 34 -78 81 -100 105 -22 23 -44 42 -48 42 -5 0 -166 -158 -359
-350 -192 -193 -352 -350 -355 -350 -3 0 -50 45 -105 100 l-100 100 358 358
358 358 -104 108 -103 108 -356 -356 c-196 -196 -360 -356 -365 -356 -5 0 -55
47 -113 105 l-104 106 362 362 362 362 -103 102 c-56 57 -104 105 -107 107 -3
2 -261 -253 -573 -568z"/>
<path d="M2986 2109 l-229 -231 130 -126 c72 -70 261 -254 420 -408 158 -155
343 -335 410 -400 67 -66 244 -238 394 -384 613 -598 570 -559 589 -541 9 9
50 54 91 101 41 47 83 94 94 106 11 12 45 49 75 84 90 102 100 114 131 148
l30 33 -73 71 c-40 39 -223 217 -407 397 -184 179 -373 364 -421 411 -48 47
-227 221 -396 386 -514 502 -599 584 -604 583 -3 0 -108 -104 -234 -230z"/>
<path d="M823 1298 l-822 -823 70 -75 c39 -41 140 -148 226 -238 l156 -162
824 825 c454 453 823 829 821 834 -2 8 -448 461 -453 461 0 0 -370 -370 -822
-822z"/>
</g>
</svg>
